PathFileType	4	(X/Y/Z)	pose_F01_0-91.trc
DataRate	CameraRate	NumFrames	NumMarkers	Units	OrigDataRate	OrigDataStartFrame	OrigNumFrames
30	30	5	21	m	30	45	91
Frame#	Time	CHip			RHip			RKnee			RAnkle			RBigToe			RSmallToe			RHeel			LHip			LKnee			LAnkle			LBigToe			LSmallToe			LHeel			Neck			Nose			RShoulder			RElbow			RWrist			LShoulder			LElbow			LWrist			
		X1	Y1	Z1	X2	Y2	Z2	X3	Y3	Z3	X4	Y4	Z4	X5	Y5	Z5	X6	Y6	Z6	X7	Y7	Z7	X8	Y8	Z8	X9	Y9	Z9	X10	Y10	Z10	X11	Y11	Z11	X12	Y12	Z12	X13	Y13	Z13	X14	Y14	Z14	X15	Y15	Z15	X16	Y16	Z16	X17	Y17	Z17	X18	Y18	Z18	X19	Y19	Z19	X20	Y20	Z20	X21	Y21	Z21	
45	1.5	-0.3173916054022174	1.8241959956984768	-0.5673879792112856	-0.3244321407395583	1.8224161967427526	-0.5121214899271864	-0.34295968108313946	1.6987109045074003	-0.4850132166479486	-0.3627527240258497	1.5725110034732943	-0.45295210263882435	-0.27525758381201343	1.5340535129882031	-0.43639729401444755	-0.3356601099965695	1.5435213908922376	-0.41825883131528746	-0.3663543257923178	1.5519233346617411	-0.4574076221385156	-0.30736283347178384	1.8257405630029064	-0.6247477531278367	-0.3158568146622438	1.6978538440356203	-0.6093920744323298	-0.3414443312303327	1.5775473593293865	-0.5831729906877106	-0.45020322616867614	1.5288441512648838	-0.9856717432875501	-0.3028174340706399	1.5512598011683938	-0.5899403905133028	-0.35835001243436987	1.5690580424938385	-0.5788749617948774	-0.3157879787025594	1.9845004523428214	-0.5990006281583528	-0.27414720382722196	2.0403043393661013	-0.6228559008641843	-0.3228701468248159	1.9815386459694697	-0.5192946560813537	-0.32239663385261447	1.8987282218540047	-0.4829657497530868	-0.3028704096044229	1.8287848417080186	-0.469262420979575	-0.3015143122625254	1.9861300215352904	-0.6870710360257319	-1.1222499128225707	1.830644642150606	0.12377412844222176	-0.2829175972279496	1.8386650515987253	-0.6711783112682818
46	1.5333333333333334	-0.3176250795123269	1.82071405396687	-0.5585043902992574	-0.3315410130936783	1.8177473340968395	-0.49998892036856885	-0.34650233836664396	1.6985656229586477	-0.48563099723896064	-0.3627527240258497	1.5725110034732943	-0.45295210263882435	-0.27525758381201343	1.5340535129882031	-0.43639729401444755	-0.33597669157906784	1.542838361060764	-0.41782361090865094	-0.3748903926362774	1.554403995152108	-0.4608970762185625	-0.3098288098212483	1.8234970373779211	-0.613579387238737	-0.3173977276648789	1.698216091653916	-0.6034738238417306	-0.3414443312303327	1.5775473593293865	-0.5831729906877106	-0.45020322616867614	1.5288441512648838	-0.9856717432875501	-0.3028174340706399	1.5512598011683938	-0.5899403905133028	-0.35835001243436987	1.5690580424938385	-0.5788749617948774	-0.31581503560080587	1.9830343141051376	-0.5902246545520268	-0.27250236126154664	2.0371788293496835	-0.6075610273910181	-0.32662792665868606	1.9809024580104924	-0.506193372748179	-0.32444184347799776	1.8951141746479778	-0.47187797526109054	-0.305974981097086	1.8207169774196033	-0.4656593143559875	-0.3039153028244855	1.985745769160366	-0.6766909770651053	-1.1358886328871967	1.8294655676028426	0.1429416873467355	-0.29231851386128044	1.8324691683771674	-0.6568968590654496
47	1.5666666666666667	-0.3266753421230788	1.820636533482146	-0.5446867400231307	-0.3365718328013174	1.8184380145274244	-0.4902400551711969	-0.3546478559044205	1.6950419929946288	-0.4766949632174878	-0.3627527240258497	1.5725110034732943	-0.45295210263882435	-0.27525758381201343	1.5340535129882031	-0.43639729401444755	-0.3358382495788624	1.5421536145943995	-0.41771382302504845	-0.5625471776543205	1.5412247909271226	-0.9426555265897434	-0.3118837266854944	1.824021624013563	-0.6030427172952211	-0.3202376640502325	1.6940937851908304	-0.5958828680423819	-0.3414443312303327	1.5775473593293865	-0.5831729906877106	-0.45020322616867614	1.5288441512648838	-0.9856717432875501	-0.3028174340706399	1.5512598011683938	-0.5899403905133028	-0.35835001243436987	1.5690580424938385	-0.5788749617948774	-0.3190945428002611	1.9800456274958436	-0.5822467358315314	-0.27996753278110575	2.034718398824112	-0.5869503670595654	-0.32886786003369656	1.9760488340381455	-0.49533118430839534	-0.3295119292822953	1.889060518827969	-0.46123639842216485	-0.3205143702642591	1.8183887704298134	-0.44498036077216796	-0.31052319104478987	1.9829058785549456	-0.6610382612396308	-1.1603866253113906	1.8243302936187271	0.1765135168356445	-0.295629123324765	1.8231066663633708	-0.6444639497040887
48	1.6	-0.3331854519030086	1.8169255843116776	-0.537451481922965	-0.3426618973135185	1.8141183211027545	-0.48328447910101	-0.3594452393420637	1.694189184069999	-0.46720341452185465	-0.3627527240258497	1.5725110034732943	-0.45295210263882435	-0.27525758381201343	1.5340535129882031	-0.43639729401444755	-0.33607783417820714	1.5407838739737638	-0.4172080771574718	-0.5635693662044012	1.540766713978362	-0.9452710893559669	-0.32485090306939024	1.8194807192558333	-0.5893195866411488	-0.32579986083169665	1.695021873311136	-0.5860305988731509	-0.3414443312303327	1.5775473593293865	-0.5831729906877106	-0.45020322616867614	1.5288441512648838	-0.9856717432875501	-0.3028174340706399	1.5512598011683938	-0.5899403905133028	-0.35835001243436987	1.5690580424938385	-0.5788749617948774	-0.32726695018014906	1.9782297057849698	-0.5649055331239307	-0.2811852532279684	2.034586461201148	-0.5732053328626954	-0.3356719160548804	1.973902200787909	-0.4831466295310121	-0.33563329162819067	1.8881246909424787	-0.4462909463978891	-0.3267399171891379	1.8197871360309348	-0.4383628492883699	-0.3119015232102225	1.9825533641044566	-0.647553561143046	-0.3185817115350502	1.895759505442247	-0.6574963023325978	-0.306791739681195	1.8237567720597703	-0.6333100459307631
49	1.6333333333333333	-0.3425322709804544	1.8141297755145611	-0.523255398093059	-0.3506281515023101	1.811216320191402	-0.4657610494507987	-0.360376544472739	1.6939653232567407	-0.4617833400564532	-0.3627527240258497	1.5725110034732943	-0.45295210263882435	-0.27525758381201343	1.5340535129882031	-0.43639729401444755	-0.33677431255091717	1.5423594781835626	-0.41238614081711933	-0.5635709938642202	1.5410467454916372	-0.9453387187975575	-0.3261201349594737	1.8160506957481253	-0.5834981676087035	-0.32990773591146694	1.6976514805099754	-0.5820737396841089	-0.3414443312303327	1.5775473593293865	-0.5831729906877106	-0.45020322616867614	1.5288441512648838	-0.9856717432875501	-0.3028174340706399	1.5512598011683938	-0.5899403905133028	-0.35835001243436987	1.5690580424938385	-0.5788749617948774	-0.3283238651066273	1.9743702429476	-0.5588661355263264	-0.2812011534046437	2.033931132017645	-0.5564339590108616	-0.34041168362443597	1.972414311958879	-0.4732657920390574	-0.3413944465908533	1.886011122652432	-0.439577261962723	-0.33749502591175845	1.8082765874813889	-0.42586099515497056	-0.31113279857638565	1.9799437669239852	-0.6438691499421464	-0.31787643284956724	1.8917536883052135	-0.6451753420779981	-0.31439326583661154	1.8206840015175394	-0.6210110484546216
